<svg width="900" height="470" viewBox="0 0 900 470" fill="none" xmlns="http://www.w3.org/2000/svg">
<path d="M651.613 504.917H581.419V99.5597C581.419 74.3854 577.935 55.5046 570.968 43.6881C566.581 35.9817 559.097 30.7156 549.032 28.1468L408.258 370.312H391.484L391.097 369.541L298.323 140.532L205.29 370.312H188.387L78.9677 96.3487C67.7419 68.8624 56.2581 49.211 45.0322 38.0367C34.0645 27.1193 19.2258 21.0826 1.16128 20.0551L0 19.9267V2.45876H1.29032C3.74194 2.45876 7.74193 2.20188 12.3871 1.68812C17.4194 1.17436 22.5806 0.91748 27.6129 0.91748C54.8387 0.91748 79.2258 7.85326 100.129 21.7248C121.032 35.5964 138.839 60.2569 152.903 95.3211L215.613 249.578L278.064 92.1101C266.323 66.2936 254.968 47.7982 244.387 37.2661C233.677 26.734 220.516 21.0826 204.129 20.0551L202.968 19.9267V2.45876H204.258C206.71 2.45876 210.71 2.20188 215.355 1.68812C220.387 1.17436 225.548 0.91748 230.581 0.91748C257.806 0.91748 282.194 7.85326 303.097 21.7248C324 35.5964 341.806 60.2569 355.871 95.3211L418.581 249.578L515.484 9.00923L710.71 8.75233C758.71 8.75233 802.71 19.156 841.419 39.578C880.258 60.1285 900 100.587 900 159.67C900 198.716 889.806 229.156 869.548 250.349C849.419 271.413 826.581 285.67 801.548 292.606C776.516 299.67 753.419 303.138 733.161 303.138H651.742V504.917H651.613ZM584 502.349H649.032V300.312H733.032C753.032 300.312 775.871 296.844 800.645 289.78C825.161 282.973 847.613 268.972 867.355 248.294C887.097 227.615 897.032 197.688 897.032 159.413C897.032 101.358 877.806 61.6698 839.742 41.6331C801.419 21.3395 757.935 11.0643 710.323 11.0643L516.774 11.3211L418.194 256.257L353.161 96.0918C339.226 61.6698 321.806 37.2661 301.419 23.7799C281.032 10.2936 257.161 3.48629 230.452 3.48629C225.548 3.48629 220.387 3.74316 215.484 4.25692C211.355 4.64224 208 4.89913 205.419 5.02757V17.6147C221.806 18.8991 235.097 24.6789 246.065 35.4679C256.903 46.2569 268.516 65.1376 280.516 91.5964L280.774 92.1101L280.516 92.6239L215.484 256.514L150.452 96.2202C136.516 61.7982 119.097 37.3945 98.7097 23.9083C78.3226 10.4221 54.4516 3.61473 27.7419 3.61473C22.8387 3.61473 17.8064 3.8716 12.7742 4.38537C8.64515 4.77069 5.29032 5.02758 2.70968 5.15602V17.7432C21.0323 19.0276 35.871 25.3211 47.0968 36.367C58.5806 47.7982 70.1935 67.7065 81.5484 95.4496L190.323 367.872H203.484L298.323 133.725L393.161 367.743H406.581L547.613 25.0643L548.645 25.3211C560 28.0184 568.387 33.7982 573.29 42.4037C580.387 54.734 584 73.8716 584 99.5597V502.349ZM706.71 276.807C688.903 276.807 669.806 274.239 650.064 269.358L649.032 269.101V42.5321L650.064 42.2753C669.935 37.2661 689.032 34.8257 706.71 34.8257C722.839 34.8257 740.129 39.0643 758.323 47.2844C776.516 55.6331 792.258 68.9909 805.032 86.9725C817.935 105.211 824.516 128.33 824.516 155.817C824.516 183.303 817.935 206.422 805.032 224.661C792.129 242.771 776.387 256.128 758.323 264.349C740.258 272.569 722.839 276.807 706.71 276.807ZM651.613 267.046C670.839 271.798 689.419 274.239 706.71 274.239C722.452 274.239 739.484 270.128 757.29 262.037C774.968 253.945 790.323 240.844 802.968 223.119L804 223.89L802.968 223.119C815.613 205.395 821.935 182.789 821.935 155.817C821.935 128.844 815.484 106.239 802.968 88.5138C790.452 70.9175 775.097 57.8166 757.29 49.5964C739.484 41.5046 722.452 37.3945 706.71 37.3945C689.419 37.3945 670.839 39.8349 651.613 44.5872V267.046Z" fill="white"/>
</svg>
