<svg width="30" height="16" viewBox="0 0 30 16" fill="none" xmlns="http://www.w3.org/2000/svg">
<path fill-rule="evenodd" clip-rule="evenodd" d="M1.46824 1.55549C1.83529 1.89016 2.20235 2.48226 2.58353 3.31893L6.1694 11.5183H6.66352L9.74117 4.55462L12.8188 11.5183H13.2988L17.9208 1.1222H17.9292C18.621 1.1222 19.0868 1.31528 19.3127 1.67569C19.5386 2.04897 19.6515 2.61533 19.6515 3.37477V15.5H21.868V9.43738H24.5786C25.2562 9.43738 25.9904 9.33441 26.8092 9.12846C27.6139 8.90964 28.348 8.49774 29.0115 7.86702C29.6751 7.24918 29.9998 6.34815 29.9998 5.17682C29.9998 3.40051 29.3786 2.21631 28.108 1.59846C26.8374 0.980613 25.4257 0.67169 23.8445 0.67169H17.4351L16.8929 0.671691L13.6659 8.03L11.5765 3.30605C11.1247 2.26344 10.5459 1.52975 9.86823 1.11785C9.17646 0.705951 8.39999 0.5 7.51058 0.5C7.35335 0.5 7.20827 0.511089 7.05279 0.522974C7.04075 0.523895 7.02864 0.52482 7.01646 0.525745C6.98404 0.528433 6.95284 0.531121 6.92301 0.533691C6.80995 0.543432 6.71642 0.55149 6.64941 0.55149V1.002C7.18588 1.02775 7.63764 1.20795 7.99058 1.52974C8.34352 1.85154 8.71058 2.40503 9.10587 3.20308L7.01646 8.03L4.92705 3.30605C4.47529 2.26344 3.89647 1.52975 3.21882 1.11785C2.52706 0.705951 1.75059 0.5 0.861176 0.5C0.703943 0.5 0.558871 0.511089 0.403387 0.522974C0.391343 0.523895 0.379238 0.52482 0.367059 0.525745C0.334635 0.528433 0.303441 0.53112 0.273606 0.533691C0.160553 0.543432 0.0670196 0.55149 0 0.55149V1.002C0.607058 1.04062 1.10118 1.22082 1.46824 1.55549ZM26.908 7.09471C26.4986 7.63533 25.9904 8.03436 25.3974 8.27892C24.8045 8.52349 24.2398 8.6522 23.7174 8.62646C23.1386 8.62646 22.5315 8.5621 21.868 8.40764V1.66282C22.5315 1.52123 23.1386 1.444 23.7174 1.444C24.2539 1.444 24.8045 1.57272 25.3974 1.81728C25.9904 2.07472 26.4845 2.46087 26.908 3.00149C27.3315 3.5421 27.5433 4.22431 27.5433 5.0481C27.5433 5.8719 27.3174 6.5541 26.908 7.09471Z" fill="#B3A374"/>
</svg>
