<svg width="440" height="247" viewBox="0 0 440 247" fill="none" xmlns="http://www.w3.org/2000/svg">
<path d="M318.566 247H284.249V48.3425C284.249 36.0051 282.546 26.752 279.14 20.961C276.995 17.1843 273.336 14.6035 268.416 13.3445L199.593 181.033H191.392L191.203 180.655L145.847 68.4223L100.364 181.033H92.1004L38.6064 46.7689C33.1183 33.2984 27.5039 23.6677 22.0158 18.1914C16.6538 12.841 9.39928 9.88251 0.567738 9.37895L0 9.316V0.75535H0.630824C1.82939 0.75535 3.78495 0.629459 6.05591 0.377675C8.51613 0.125891 11.0394 0 13.4996 0C26.81 0 38.7326 3.39908 48.952 10.1972C59.1713 16.9954 67.8767 29.081 74.7527 46.2653L105.411 121.863L135.943 44.6916C130.202 32.0395 124.651 22.9753 119.478 17.8137C114.242 12.6521 107.808 9.88251 99.7964 9.37895L99.2287 9.316V0.75535H99.8595C101.058 0.75535 103.014 0.629459 105.285 0.377675C107.745 0.125891 110.268 0 112.728 0C126.039 0 137.961 3.39908 148.181 10.1972C158.4 16.9954 167.105 29.081 173.981 46.2653L204.639 121.863L252.014 3.9656L347.458 3.8397C370.925 3.8397 392.436 8.93832 411.361 18.9467C430.348 29.0181 440 48.8461 440 77.8012C440 96.9368 435.017 111.855 425.113 122.241C415.272 132.564 404.106 139.551 391.868 142.95C379.63 146.412 368.338 148.112 358.434 148.112H318.629V247H318.566ZM285.511 245.741H317.305V146.727H358.371C368.149 146.727 379.315 145.028 391.427 141.565C403.412 138.229 414.389 131.368 424.04 121.234C433.692 111.1 438.549 96.4332 438.549 77.6753C438.549 49.2237 429.15 29.7734 410.54 19.9539C391.805 10.0084 370.546 4.97273 347.269 4.97273L252.645 5.09862L204.45 125.137L172.657 46.643C165.844 29.7734 157.328 17.8137 147.361 11.2044C137.394 4.59506 125.723 1.25892 112.665 1.25892C110.268 1.25892 107.745 1.38481 105.348 1.63659C103.329 1.82543 101.689 1.95132 100.427 2.01427V8.18298C108.439 8.81244 114.936 11.645 120.298 16.9325C125.597 22.2199 131.275 31.473 137.141 44.4398L137.267 44.6916L137.141 44.9434L105.348 125.262L73.5541 46.7059C66.7412 29.8364 58.2251 17.8767 48.2581 11.2673C38.291 4.658 26.6208 1.32186 13.5627 1.32186C11.1656 1.32186 8.70537 1.44776 6.24516 1.69954C4.22652 1.88838 2.58638 2.01427 1.32473 2.07722V8.24592C10.2824 8.87538 17.5369 11.9597 23.0251 17.3731C28.6394 22.9753 34.3168 32.7319 39.8681 46.3282L93.0466 179.837H99.481L145.847 65.0861L192.212 179.774H198.773L267.722 11.8338L268.227 11.9597C273.778 13.2816 277.878 16.1142 280.275 20.3315C283.745 26.3744 285.511 35.7533 285.511 48.3425V245.741ZM345.503 135.208C336.797 135.208 327.461 133.949 317.809 131.557L317.305 131.431V20.3945L317.809 20.2686C327.524 17.8137 336.86 16.6177 345.503 16.6177C353.388 16.6177 361.841 18.6949 370.736 22.7235C379.63 26.815 387.326 33.3614 393.571 42.1738C399.88 51.1121 403.097 62.4424 403.097 75.9128C403.097 89.3833 399.88 100.714 393.571 109.652C387.263 118.527 379.567 125.074 370.736 129.102C361.904 133.131 353.388 135.208 345.503 135.208ZM318.566 130.424C327.966 132.753 337.049 133.949 345.503 133.949C353.199 133.949 361.525 131.935 370.231 127.969C378.873 124.004 386.38 117.583 392.562 108.897L393.067 109.274L392.562 108.897C398.744 100.21 401.835 89.1315 401.835 75.9128C401.835 62.6942 398.681 51.6157 392.562 42.9291C386.443 34.3055 378.936 27.8851 370.231 23.8565C361.525 19.8909 353.199 17.8767 345.503 17.8767C337.049 17.8767 327.966 19.0726 318.566 21.4016V130.424Z" fill="#DBD4BD"/>
</svg>
