<svg width="515" height="289" viewBox="0 0 515 289" fill="none" xmlns="http://www.w3.org/2000/svg">
<path d="M372.867 289H332.701V56.5627C332.701 42.1274 330.708 31.301 326.72 24.5252C324.21 20.1063 319.928 17.0866 314.168 15.6137L233.614 211.815H224.016L223.794 211.374L170.707 80.0568L117.472 211.815H107.799L45.1871 54.7215C38.7634 38.9605 32.1921 27.6921 25.7685 21.2847C19.4925 15.0245 11.0014 11.5629 0.664512 10.9737L0 10.9001V0.88379H0.738351C2.14122 0.88379 4.43011 0.736492 7.08817 0.441895C9.96774 0.147298 12.9211 0 15.8007 0C31.3799 0 45.3348 3.97706 57.296 11.9312C69.2573 19.8853 79.4466 34.026 87.4946 54.1323L123.378 142.585L159.115 52.291C152.396 37.4875 145.898 26.882 139.844 20.8428C133.715 14.8035 126.184 11.5629 116.807 10.9737L116.143 10.9001V0.88379H116.881C118.284 0.88379 120.573 0.736492 123.231 0.441895C126.11 0.147298 129.064 0 131.943 0C147.523 0 161.477 3.97706 173.439 11.9312C185.4 19.8853 195.589 34.026 203.637 54.1323L239.521 142.585L294.971 4.63991L406.684 4.4926C434.151 4.4926 459.328 10.4582 481.479 22.1684C503.703 33.9523 515 57.1519 515 91.0306C515 113.42 509.167 130.875 497.575 143.027C486.057 155.105 472.988 163.281 458.664 167.258C444.34 171.308 431.123 173.297 419.531 173.297H372.941V289H372.867ZM334.178 287.527H371.391V171.677H419.457C430.902 171.677 443.971 169.688 458.147 165.637C472.176 161.734 485.023 153.706 496.32 141.849C507.616 129.991 513.302 112.831 513.302 90.8833C513.302 57.5938 502.3 34.8361 480.519 23.3468C458.59 11.7102 433.708 5.81829 406.462 5.81829L295.71 5.96559L239.3 146.415L202.087 54.5742C194.113 34.8361 184.145 20.8428 172.479 13.1096C160.813 5.3764 147.153 1.47299 131.87 1.47299C129.064 1.47299 126.11 1.62028 123.305 1.91488C120.942 2.13582 119.022 2.28313 117.546 2.35678V9.57441C126.923 10.3109 134.528 13.6251 140.804 19.8117C147.006 25.9982 153.651 36.8247 160.518 51.9964L160.665 52.291L160.518 52.5856L123.305 146.562L86.0917 54.6478C78.1176 34.9098 68.1498 20.9164 56.4839 13.1832C44.8179 5.45005 31.1584 1.54663 15.8746 1.54663C13.0688 1.54663 10.1892 1.69393 7.30967 1.98853C4.94695 2.20948 3.02724 2.35678 1.55054 2.43043V9.64806C12.0351 10.3845 20.5262 13.9934 26.9498 20.3272C33.5211 26.882 40.1663 38.2976 46.6638 54.2059L108.907 210.416H116.438L170.707 76.1534L224.976 210.342H232.654L313.356 13.8461L313.947 13.9934C320.444 15.54 325.244 18.8542 328.049 23.7887C332.11 30.8591 334.178 41.8328 334.178 56.5627V287.527ZM404.395 158.199C394.206 158.199 383.278 156.726 371.981 153.927L371.391 153.78V23.8624L371.981 23.7151C383.352 20.8428 394.28 19.4434 404.395 19.4434C413.624 19.4434 423.518 21.8738 433.929 26.5874C444.34 31.3746 453.348 39.0341 460.657 49.3451C468.041 59.8033 471.806 73.0601 471.806 88.8211C471.806 104.582 468.041 117.839 460.657 128.297C453.274 138.682 444.266 146.341 433.929 151.055C423.592 155.768 413.624 158.199 404.395 158.199ZM372.867 152.601C383.869 155.326 394.501 156.726 404.395 156.726C413.403 156.726 423.149 154.369 433.338 149.729C443.454 145.089 452.24 137.577 459.476 127.413L460.067 127.855L459.476 127.413C466.712 117.25 470.33 104.287 470.33 88.8211C470.33 73.3547 466.638 60.3925 459.476 50.2288C452.314 40.1389 443.528 32.6267 433.338 27.9131C423.149 23.2732 413.403 20.9164 404.395 20.9164C394.501 20.9164 383.869 22.3157 372.867 25.0408V152.601Z" fill="#DBD4BD"/>
</svg>
