<svg width="30" height="14" viewBox="0 0 30 14" fill="none" xmlns="http://www.w3.org/2000/svg">
<path d="M22.6376 0.6875V3.26546L24.8423 3.26546L24.8423 13.6859L27.7775 13.6859L27.7775 3.26546L30 3.26546V0.6875L22.6376 0.6875ZM3.08429e-05 2.04107L3.08429e-05 12.3334C-0.00122269 12.5102 0.0357456 12.6855 0.108821 12.8492C0.181896 13.013 0.289644 13.162 0.425901 13.2877C0.562157 13.4134 0.724246 13.5134 0.902896 13.5819C1.08155 13.6504 1.27325 13.6861 1.46704 13.687L5.73422 13.687V11.2479L2.9519 11.2479L2.9519 8.40891H5.30709V5.82878H2.9519L2.9519 3.12978L5.73422 3.12978V0.6875L1.46704 0.6875C1.27327 0.688424 1.08161 0.724176 0.902992 0.792713C0.724377 0.86125 0.562316 0.961229 0.426075 1.08693C0.289835 1.21264 0.182085 1.36161 0.108982 1.52532C0.0358788 1.68904 -0.00114427 1.86429 3.08429e-05 2.04107ZM13.7106 0.6875L11.8188 4.41442L9.92705 0.6875L7.11141 0.6875L10.3685 7.27135L7.11141 13.6875H10.0984L11.8236 10.2043L13.5488 13.6875H16.5328L13.2692 7.27244L16.5262 0.6875L13.7106 0.6875ZM17.9998 13.6875H20.9344L20.9344 0.6875L17.9998 0.6875L17.9998 13.6875Z" fill="#B3A374"/>
</svg>
