<svg width="178" height="40" viewBox="0 0 178 40" fill="none" xmlns="http://www.w3.org/2000/svg">
<path d="M5.98897 17.9061C5.10535 15.7413 4.25446 14.2092 3.40357 13.3433C2.55268 12.4774 1.40724 12.0111 0 11.9112V10.7455C0.19636 10.7455 0.490901 10.7122 0.850894 10.6789C1.24361 10.6456 1.60361 10.6123 1.99633 10.6123C4.0581 10.6123 5.85806 11.1452 7.46167 12.2109C9.03254 13.2767 10.3743 15.1751 11.4216 17.8728L16.2651 30.0956L21.1087 17.6063C20.1923 15.5414 19.3414 14.1093 18.5233 13.2767C17.7051 12.4441 16.6578 11.9778 15.4142 11.9112V10.7455C15.6106 10.7455 15.9051 10.7122 16.2651 10.6789C16.6578 10.6456 17.0178 10.6123 17.4106 10.6123C19.4723 10.6123 21.2723 11.1452 22.8759 12.2109C24.4468 13.2767 25.7886 15.1751 26.8358 17.8728L31.6794 30.0956L39.1083 11.2118H41.9555L30.8285 39.1213H29.7158L22.5814 21.1033L15.447 39.1213H14.3015L5.98897 17.9061Z" fill="#39463F"/>
<path d="M45.5556 7.18152C45.5556 5.21653 45.2937 3.75112 44.7701 2.78528C44.2465 1.85274 43.1665 1.35317 41.5629 1.35317H40.4175V0.1875H55.2754C58.9407 0.1875 62.2134 0.986816 65.1588 2.58545C68.1042 4.18408 69.5442 7.24813 69.5442 11.8442C69.5442 14.8749 68.7914 17.2063 67.2533 18.8049C65.7151 20.4369 64.0134 21.5026 62.1479 22.0688C60.2498 22.6017 58.548 22.8681 56.9771 22.8681H50.6936V38.5547H45.5556V7.18152ZM58.8753 19.8707C60.2498 19.2379 61.428 18.2054 62.377 16.8066C63.3261 15.4078 63.8497 13.6427 63.8497 11.5112C63.8497 9.37964 63.3588 7.61449 62.377 6.21568C61.3952 4.81688 60.2498 3.81773 58.8753 3.15163C57.5008 2.51884 56.2244 2.18579 54.9808 2.18579C53.639 2.18579 52.2318 2.38562 50.6936 2.75197V20.2037C52.2318 20.6034 53.639 20.7699 54.9808 20.7699C56.1917 20.8365 57.5008 20.5035 58.8753 19.8707Z" fill="#39463F"/>
<path d="M75.5988 18.2058C75.5988 16.2408 75.337 14.7754 74.8134 13.8096C74.2897 12.877 73.2098 12.3775 71.6062 12.3775H71.0498V11.2118H75.6315C77.0715 11.2118 78.1842 11.4116 78.9042 11.8113C79.6242 12.2109 80.1805 12.877 80.4751 13.8096H80.7696C81.4569 12.9103 82.3732 12.1776 83.5514 11.5448C84.6968 10.9121 86.0713 10.6123 87.6422 10.6123C89.1803 10.6123 90.2931 10.9121 91.0785 11.4782C91.733 11.9778 92.3876 12.8437 93.0748 14.1093L90.784 15.8412C90.3585 15.275 89.7694 14.8087 88.9513 14.5423C88.1658 14.2425 87.2495 14.1093 86.2022 14.1093C85.0568 14.1093 84.0095 14.3758 83.0605 14.9086C82.1114 15.4415 81.3587 16.1409 80.7696 17.0401V38.5551H75.6315V18.2058H75.5988Z" fill="#39463F"/>
<path d="M98.6708 18.2057C98.6708 16.2407 98.409 14.7753 97.8853 13.8094C97.3617 12.8769 96.2817 12.3773 94.6781 12.3773H93.5327V11.2117H98.6708C100.078 11.2117 101.125 11.4115 101.845 11.7778C102.565 12.1442 103.056 12.8103 103.351 13.7761C103.645 14.742 103.809 16.2074 103.809 18.2057V38.555H98.6708V18.2057ZM98.6053 6.64888C97.9835 5.91618 97.6563 5.05025 97.6563 4.0178C97.6563 3.21848 97.8853 2.55239 98.3762 2.08612C98.8671 1.61985 99.489 1.38672 100.274 1.38672C101.158 1.38672 101.911 1.75307 102.533 2.48578C103.154 3.21848 103.482 4.08441 103.482 5.11686C103.482 5.91618 103.253 6.58228 102.762 7.04855C102.271 7.51481 101.649 7.74794 100.863 7.74794C99.9799 7.74794 99.2271 7.38159 98.6053 6.64888Z" fill="#39463F"/>
<path d="M112.743 18.2058C112.743 16.2408 112.481 14.7754 111.958 13.8096C111.434 12.877 110.354 12.3775 108.75 12.3775H107.605V11.2118H112.743C114.15 11.2118 115.23 11.4116 115.983 11.778C116.736 12.1776 117.259 12.7438 117.619 13.5098H117.914C118.699 12.7105 119.747 12.0111 121.023 11.4449C122.299 10.8787 123.739 10.6123 125.343 10.6123C126.946 10.6123 128.321 10.9121 129.466 11.5115C130.612 12.111 131.528 13.1768 132.215 14.6755C133.197 13.4099 134.474 12.4108 136.012 11.6781C137.55 10.9454 139.153 10.6123 140.79 10.6123C143.212 10.6123 145.175 11.3783 146.615 12.9436C148.055 14.509 148.775 17.2067 148.775 21.07V38.5218H143.637V21.07C143.637 18.2724 143.244 16.2741 142.492 15.0419C141.739 13.8096 140.593 13.2101 139.055 13.2101C137.975 13.2101 136.863 13.6098 135.684 14.4091C134.506 15.2084 133.623 16.0743 133.066 17.0068C133.263 17.573 133.361 18.9385 133.361 21.07V38.5218H128.223V21.07C128.223 18.2724 127.83 16.2741 127.077 15.0419C126.325 13.8096 125.179 13.2101 123.641 13.2101C121.612 13.2101 119.714 14.2425 117.914 16.3074V38.5218H112.776V18.2058H112.743Z" fill="#39463F"/>
<path d="M160.589 37.256C158.789 35.9904 157.448 34.2919 156.531 32.127C155.615 29.9622 155.157 27.5643 155.157 24.8999C155.157 22.2688 155.615 19.8709 156.531 17.706C157.448 15.5412 158.757 13.8094 160.491 12.5771C162.226 11.3115 164.255 10.6787 166.578 10.6787C170.44 10.6787 173.287 11.7778 175.185 13.9759C177.084 16.174 178 19.338 178 23.4678L177.902 25.7991H160.589C160.589 29.063 161.277 31.6941 162.651 33.759C164.026 35.8239 165.891 36.8563 168.313 36.8563C170.113 36.8563 171.618 36.4567 172.862 35.6907C174.105 34.9247 175.251 33.759 176.331 32.1937L177.476 33.0596C176.233 35.1911 174.76 36.7564 173.091 37.7223C171.422 38.6881 169.458 39.1877 167.2 39.1877C164.582 39.1544 162.389 38.5216 160.589 37.256ZM172.6 23.4345C172.6 20.0374 172.109 17.4396 171.127 15.6411C170.146 13.8427 168.64 12.9767 166.611 12.9767C165.466 12.9767 164.451 13.443 163.535 14.3422C162.618 15.2415 161.898 16.5071 161.408 18.1057C160.884 19.7043 160.622 21.4695 160.622 23.4678H172.6V23.4345Z" fill="#39463F"/>
</svg>
