<svg width="220" height="48" viewBox="0 0 220 48" fill="none" xmlns="http://www.w3.org/2000/svg">
<path d="M7.4021 21.8363C6.30998 19.2071 5.25832 17.3465 4.20666 16.2948C3.155 15.2432 1.73929 14.6769 0 14.5555V13.1398C0.242692 13.1398 0.606732 13.0994 1.05167 13.0589C1.53705 13.0185 1.98198 12.978 2.46737 12.978C5.01563 12.978 7.2403 13.6252 9.22228 14.9196C11.1638 16.2139 12.8222 18.5195 14.1166 21.7958L20.103 36.6405L26.0894 21.4722C24.9568 18.9644 23.9051 17.2251 22.8939 16.2139C21.8827 15.2027 20.5883 14.6364 19.0513 14.5555V13.1398C19.294 13.1398 19.658 13.0994 20.103 13.0589C20.5883 13.0185 21.0333 12.978 21.5187 12.978C24.0669 12.978 26.2916 13.6252 28.2736 14.9196C30.2151 16.2139 31.8735 18.5195 33.1679 21.7958L39.1543 36.6405L48.3361 13.7061H51.8551L38.1026 47.602H36.7273L27.9095 25.7193L19.0917 47.602H17.676L7.4021 21.8363Z" fill="white"/>
<path d="M56.3045 8.81159C56.3045 6.42512 55.9809 4.64539 55.3338 3.47238C54.6866 2.33981 53.3518 1.73308 51.3698 1.73308H49.9541V0.317383H68.3178C72.848 0.317383 76.8929 1.28815 80.5332 3.22968C84.1736 5.17122 85.9534 8.89249 85.9534 14.4744C85.9534 18.1552 85.0231 20.9866 83.122 22.9282C81.2209 24.9101 79.1175 26.2045 76.812 26.8921C74.466 27.5393 72.3626 27.8629 70.4211 27.8629H62.655V46.9142H56.3045V8.81159ZM72.7671 24.2225C74.466 23.454 75.9221 22.2001 77.0951 20.5012C78.2681 18.8024 78.9153 16.6586 78.9153 14.0699C78.9153 11.4812 78.3086 9.33743 77.0951 7.63858C75.8817 5.93974 74.466 4.72628 72.7671 3.91731C71.0683 3.14878 69.4908 2.7443 67.9537 2.7443C66.2953 2.7443 64.556 2.98699 62.655 3.43192V24.627C64.556 25.1124 66.2953 25.3146 67.9537 25.3146C69.4503 25.3955 71.0683 24.991 72.7671 24.2225Z" fill="white"/>
<path d="M93.4363 22.2003C93.4363 19.8138 93.1127 18.0341 92.4656 16.8611C91.8184 15.7285 90.4836 15.1218 88.5016 15.1218H87.814V13.7061H93.4768C95.2565 13.7061 96.6318 13.9488 97.5216 14.4342C98.4115 14.9196 99.0991 15.7285 99.4632 16.8611H99.8272C100.677 15.769 101.809 14.8791 103.265 14.1106C104.681 13.3421 106.38 12.978 108.321 12.978C110.222 12.978 111.598 13.3421 112.569 14.0297C113.377 14.6364 114.186 15.6881 115.036 17.2251L112.204 19.3285C111.679 18.6408 110.951 18.0746 109.939 17.751C108.969 17.3869 107.836 17.2251 106.542 17.2251C105.126 17.2251 103.832 17.5487 102.659 18.1959C101.486 18.8431 100.555 19.6925 99.8272 20.7846V46.9144H93.4768V22.2003H93.4363Z" fill="white"/>
<path d="M121.952 22.2C121.952 19.8135 121.629 18.0338 120.982 16.8608C120.335 15.7282 119 15.1215 117.018 15.1215H115.602V13.7058H121.952C123.692 13.7058 124.986 13.9485 125.876 14.3934C126.766 14.8383 127.373 15.6473 127.737 16.8203C128.101 17.9933 128.303 19.7731 128.303 22.2V46.9141H121.952V22.2ZM121.872 8.16431C121.103 7.27444 120.699 6.22278 120.699 4.96888C120.699 3.99811 120.982 3.18914 121.588 2.62285C122.195 2.05657 122.964 1.77344 123.934 1.77344C125.027 1.77344 125.957 2.21837 126.725 3.10824C127.494 3.99811 127.898 5.04977 127.898 6.30368C127.898 7.27445 127.615 8.08342 127.009 8.6497C126.402 9.21598 125.633 9.49912 124.663 9.49912C123.57 9.49912 122.64 9.05418 121.872 8.16431Z" fill="white"/>
<path d="M139.346 22.2003C139.346 19.8139 139.022 18.0341 138.375 16.8611C137.728 15.7285 136.393 15.1218 134.411 15.1218H132.995V13.7061H139.346C141.085 13.7061 142.42 13.9488 143.35 14.3937C144.28 14.8791 144.927 15.5667 145.372 16.4971H145.736C146.707 15.5263 148.002 14.6769 149.579 13.9892C151.157 13.3016 152.936 12.978 154.918 12.978C156.9 12.978 158.599 13.3421 160.015 14.0701C161.43 14.7982 162.563 16.0926 163.412 17.9128C164.626 16.3757 166.203 15.1623 168.105 14.2724C170.006 13.3825 171.988 12.978 174.01 12.978C177.003 12.978 179.43 13.9083 181.21 15.8094C182.99 17.7105 183.879 20.9869 183.879 25.6789V46.874H177.529V25.6789C177.529 22.2812 177.044 19.8543 176.113 18.3577C175.183 16.8611 173.767 16.133 171.866 16.133C170.531 16.133 169.156 16.6184 167.7 17.5892C166.244 18.5599 165.152 19.6116 164.464 20.7442C164.707 21.4318 164.828 23.0902 164.828 25.6789V46.874H158.478V25.6789C158.478 22.2812 157.992 19.8543 157.062 18.3577C156.132 16.8611 154.716 16.133 152.815 16.133C150.307 16.133 147.961 17.3869 145.736 19.8947V46.874H139.386V22.2003H139.346Z" fill="white"/>
<path d="M198.482 45.3366C196.257 43.7995 194.598 41.7367 193.466 39.1075C192.333 36.4783 191.767 33.566 191.767 30.3302C191.767 27.1347 192.333 24.2224 193.466 21.5933C194.598 18.9641 196.216 16.8608 198.36 15.3642C200.504 13.8271 203.012 13.0586 205.884 13.0586C210.657 13.0586 214.176 14.3934 216.522 17.063C218.868 19.7326 220 23.5752 220 28.5909L219.879 31.4223H198.482C198.482 35.3862 199.331 38.5817 201.03 41.0895C202.729 43.5973 205.034 44.8512 208.027 44.8512C210.252 44.8512 212.113 44.3658 213.65 43.4355C215.187 42.5052 216.603 41.0895 217.937 39.1884L219.353 40.2401C217.816 42.8288 215.996 44.7299 213.933 45.9029C211.87 47.0759 209.443 47.6826 206.652 47.6826C203.416 47.6422 200.706 46.8736 198.482 45.3366ZM213.326 28.5504C213.326 24.4246 212.719 21.2697 211.506 19.0854C210.293 16.9012 208.432 15.8495 205.924 15.8495C204.508 15.8495 203.255 16.4158 202.122 17.5079C200.989 18.6001 200.1 20.1371 199.493 22.0786C198.846 24.0202 198.522 26.1639 198.522 28.5909H213.326V28.5504Z" fill="white"/>
</svg>
