<svg width="800" height="447" viewBox="0 0 800 447" fill="none" xmlns="http://www.w3.org/2000/svg">
<path d="M579.211 446.163H516.817V87.8C516.817 65.5443 513.72 48.8524 507.527 38.4058C503.627 31.5929 496.975 26.9373 488.029 24.6663L362.896 327.163H347.986L347.642 326.482L265.176 124.022L182.48 327.163H167.455L70.1936 84.9613C60.2151 60.6616 50.0072 43.2885 40.0287 33.4096C30.2796 23.7579 17.0896 18.4211 1.03225 17.5127L0 17.3991V1.95634H1.14695C3.32616 1.95634 6.88172 1.72925 11.0108 1.27505C15.4839 0.820848 20.0717 0.59375 24.5448 0.59375C48.7455 0.59375 70.4229 6.72544 89.0036 18.9888C107.584 31.2522 123.412 53.0538 135.914 84.0529L191.656 220.426L247.168 81.2141C236.731 58.3906 226.638 42.0394 217.233 32.7284C207.713 23.4173 196.014 18.4211 181.448 17.5127L180.416 17.3991V1.95634H181.563C183.742 1.95634 187.298 1.72925 191.427 1.27505C195.9 0.820848 200.487 0.59375 204.961 0.59375C229.161 0.59375 250.839 6.72544 269.419 18.9888C288 31.2522 303.828 53.0538 316.33 84.0529L372.072 220.426L458.208 7.74739L631.742 7.52028C674.409 7.52028 713.52 16.7178 747.928 34.7722C782.452 52.9402 800 88.7084 800 140.941C800 175.46 790.939 202.372 772.932 221.108C755.039 239.73 734.738 252.334 712.487 258.465C690.237 264.711 669.706 267.777 651.699 267.777H579.326V446.163H579.211ZM519.111 443.892H576.918V265.278H651.584C669.362 265.278 689.663 262.213 711.685 255.967C733.477 249.949 753.434 237.572 770.982 219.291C788.531 201.009 797.362 174.552 797.362 140.714C797.362 89.3897 780.272 54.3028 746.437 36.589C712.373 18.6482 673.72 9.56418 631.398 9.56418L459.355 9.79128L371.728 226.331L313.921 84.7342C301.534 54.3028 286.05 32.7284 267.928 20.8056C249.806 8.88289 228.588 2.86475 204.846 2.86475C200.487 2.86475 195.9 3.09184 191.541 3.54604C187.871 3.88668 184.889 4.11379 182.595 4.22734V15.3552C197.161 16.4907 208.975 21.6005 218.724 31.1387C228.358 40.6768 238.681 57.3687 249.348 80.7599L249.577 81.2141L249.348 81.6683L191.541 226.558L133.735 84.8477C121.348 54.4164 105.864 32.8419 87.7419 20.9192C69.6201 8.99643 48.4014 2.97829 24.6595 2.97829C20.3011 2.97829 15.828 3.20539 11.3548 3.65959C7.68458 4.00024 4.70251 4.22735 2.4086 4.3409V15.4688C18.6953 16.6043 31.8853 22.1682 41.8638 31.9335C52.0717 42.0394 62.3943 59.6397 72.4875 84.1664L169.176 325.006H180.875L265.176 118.004L349.477 324.892H361.405L486.767 21.9411L487.685 22.1682C497.778 24.5528 505.233 29.6625 509.591 37.2704C515.9 48.1711 519.111 65.0901 519.111 87.8V443.892ZM628.186 244.499C612.358 244.499 595.384 242.228 577.835 237.913L576.918 237.686V37.3839L577.835 37.1568C595.498 32.7284 612.473 30.5709 628.186 30.5709C642.523 30.5709 657.893 34.318 674.065 41.5852C690.237 48.966 704.229 60.7752 715.584 76.6721C727.054 92.7962 732.903 113.235 732.903 137.535C732.903 161.835 727.054 182.273 715.584 198.398C704.115 214.408 690.122 226.217 674.065 233.484C658.007 240.752 642.523 244.499 628.186 244.499ZM579.211 235.869C596.301 240.07 612.817 242.228 628.186 242.228C642.179 242.228 657.319 238.594 673.147 231.441C688.86 224.287 702.509 212.705 713.749 197.035L714.667 197.716L713.749 197.035C724.989 181.365 730.609 161.38 730.609 137.535C730.609 113.689 724.875 93.7046 713.749 78.0347C702.624 62.4784 688.975 50.8963 673.147 43.6291C657.319 36.4755 642.179 32.8419 628.186 32.8419C612.817 32.8419 596.301 34.9994 579.211 39.2007V235.869Z" fill="#727273"/>
</svg>
