<svg width="77" height="69" viewBox="0 0 77 69" fill="none" xmlns="http://www.w3.org/2000/svg">
<path d="M35.5064 24.5982C35.5064 9.69815 27.5809 0.1875 17.1192 0.1875C7.2915 0.1875 0 7.16197 0 16.3556C0 25.2322 6.34044 32.5237 14.9 33.4748C15.217 36.962 13.949 41.4003 11.0958 46.1557C8.55959 50.911 6.34044 54.0812 4.75533 55.9833L0.634044 60.4216L8.24257 68.3472C11.7298 66.7621 18.3873 63.2748 28.2149 48.3748C32.9703 41.0833 35.5064 33.1578 35.5064 24.5982ZM76.4746 24.5982C76.4746 9.69815 68.5491 0.1875 58.0873 0.1875C48.2597 0.1875 40.9682 7.16197 40.9682 16.3556C40.9682 25.2322 47.3086 32.5237 55.8682 33.4748C56.1852 36.962 54.9171 41.4003 52.0639 46.1557C49.5278 50.911 47.3086 54.0812 45.7235 55.9833L41.6022 60.4216L49.2107 68.3472C52.698 66.7621 59.3554 63.2748 69.1831 48.3748C73.9384 41.0833 76.4746 33.1578 76.4746 24.5982Z" fill="#DBD4BD"/>
</svg>
